<svg xmlns:xlink="http://www.w3.org/1999/xlink" id="new-nca-logo_svg__Layer_1" data-name="Layer 1" xmlns="http://www.w3.org/2000/svg" viewBox="0 0 344.63 148.95" height="148.95" width="344.63" ><head><iframe></iframe></head><defs><linearGradient id="new-nca-logo_svg__linear-gradient" x1="241.58" y1="98.92" x2="326.77" y2="16.67" gradientUnits="userSpaceOnUse"><stop offset="0" stop-color="#00b9ad"></stop><stop offset="1" stop-color="#2d3982"></stop></linearGradient><style>.new-nca-logo_svg__cls-2{fill:#373d48}</style><linearGradient id="new-nca-logo_svg__linear-gradient" x1="241.58" y1="98.92" x2="326.77" y2="16.67" gradientUnits="userSpaceOnUse"><stop offset="0" stop-color="#00b9ad"></stop><stop offset="1" stop-color="#2d3982"></stop></linearGradient></defs><path class="new-nca-logo_svg__cls-2" d="M26.82 43.77h3.1v2.71h-3.1zM22.51 43.77h3.1v2.71h-3.1zM63.35 58.99c.69 0 1.32-.14 1.88-.43.57-.29 1.04-.69 1.41-1.21.49.6 1 1.02 1.55 1.26s1.27.36 2.17.38h1.33c1.29 0 2.32-.46 3.1-1.38.44.46.95.8 1.5 1.03.56.23 1.08.34 1.55.34h19.61c.86-2.25 1.29-4.05 1.29-5.4 0-1.05-.23-1.99-.69-2.82-.46-.83-1.13-1.48-2.01-1.96-.88-.47-1.93-.71-3.15-.71-2.27 0-4.63.82-7.08 2.45v-8.05H82.8v13.9h-4.95c-.96 0-1.66-.27-2.09-.8.09-.39.13-.79.13-1.21v-6.09h-3.02v5.62c0 .75-.2 1.35-.61 1.8-.41.45-.9.68-1.47.68h-.43c-.83 0-1.45-.06-1.85-.18-.4-.12-.76-.35-1.08-.7.07-.39.11-.76.11-1.12v-6.31h-3.02v5.83c0 .75-.2 1.35-.61 1.8-.41.45-.9.68-1.48.68H32.08c-.54 0-.96-.15-1.24-.46-.28-.31-.42-.84-.42-1.58l.02-5.83c-1.87-.29-3.29-.43-4.29-.43-1.16 0-2.18.24-3.07.71-.88.47-1.57 1.13-2.05 1.97-.49.84-.73 1.78-.73 2.81s.23 2.02.69 2.84c.46.82 1.09 1.45 1.89 1.89.8.44 1.73.67 2.69.67 1.42 0 3.21-.32 3.72-.42.53.27 1.14.42 1.87.42h32.19Zm22.47-5.85c1.08-.75 2.14-1.33 3.21-1.76 1.06-.43 2.17-.65 3.34-.65.99 0 1.78.26 2.37.8.59.53.89 1.23.91 2.11 0 .86-.14 1.79-.43 2.78h-9.38v-3.27Zm-61.7 2.53c-.45-.49-.68-1.17-.68-2.03 0-1.96.87-2.95 2.63-2.95.4 0 .85.05 1.36.15v4c0 .56.07 1.06.2 1.52-.42.02-1.05.05-1.55.05-.83 0-1.5-.25-1.95-.74ZM61.6 60.88h3.1v2.71h-3.1zM65.91 60.88h3.1v2.71h-3.1z" fill="#373D48"></path><path class="new-nca-logo_svg__cls-2" d="M72.84 43.77h3.1v2.71h-3.1zM103.35 58.32c.8.44 1.69.67 2.68.67h1.83c-.06.37-.17.68-.34.94-.27.41-.67.72-1.19.93-.52.21-1.23.37-2.12.48v2.84l1.21-.15c1.68-.27 2.98-.77 3.91-1.51.93-.73 1.45-1.91 1.58-3.53h6.5V42.5h-2.99v13.9h-3.47v-7.88c-1.86-.29-3.29-.43-4.28-.43-1.16 0-2.19.24-3.07.71-.88.47-1.57 1.13-2.06 1.97-.49.84-.73 1.78-.73 2.81s.23 2.02.68 2.84c.45.82 1.08 1.45 1.87 1.89Zm3.2-7.64c.41 0 .87.05 1.38.15v5.57h-1.38c-.85 0-1.5-.25-1.95-.74-.45-.49-.68-1.17-.68-2.03 0-1.96.87-2.95 2.63-2.95ZM121.05 42.5h3.01v16.49h-3.01zM137.77 43.77h3.1v2.71h-3.1zM133.47 43.77h3.1v2.71h-3.1zM171.5 58.99c.69 0 1.32-.14 1.88-.43s1.04-.69 1.41-1.21c.49.6 1 1.02 1.55 1.26s1.27.36 2.17.38h2.84c.69 0 1.31-.14 1.88-.43.57-.29 1.03-.69 1.41-1.21.49.6 1 1.02 1.55 1.26.54.24 1.27.36 2.17.38h11.32c1.41 0 2.56-.56 3.46-1.68.45.55.98.96 1.61 1.25.62.29 1.2.43 1.73.43h5.14V42.5h-2.99v13.9h-2.15c-.6 0-1.08-.09-1.42-.26-.34-.17-.64-.45-.88-.84.23-.8.34-1.6.34-2.39 0-1.33-.33-2.55-1-3.64-.67-1.09-1.63-1.95-2.88-2.59-1.26-.64-2.74-.96-4.44-.96h-2.65v2.58h2.6c1.15 0 2.12.22 2.93.65.8.43 1.41 1.01 1.82 1.74.41.73.61 1.54.61 2.41 0 .75-.15 1.37-.43 1.86-.29.5-.64.86-1.06 1.09-.42.23-.84.34-1.24.34h-.49c.72-.66 1.08-1.49 1.08-2.48 0-.7-.18-1.39-.53-2.07-.35-.67-.88-1.23-1.58-1.66-.7-.43-1.56-.65-2.58-.65-.92 0-1.73.2-2.45.6-.72.4-1.28.93-1.68 1.59-.4.66-.6 1.35-.6 2.07 0 1.09.35 1.95 1.05 2.58h-2.63c-.83 0-1.45-.06-1.85-.18-.4-.12-.76-.35-1.08-.7.07-.39.11-.76.11-1.12v-6.31h-3.01v5.83c0 .75-.2 1.35-.61 1.8-.41.45-.9.68-1.47.68h-1.94c-.83 0-1.45-.06-1.85-.18-.4-.12-.76-.35-1.08-.7.07-.39.11-.76.11-1.12v-6.31h-3.02v5.83c0 .75-.2 1.35-.61 1.8-.41.45-.9.68-1.48.68h-27.55c-.54 0-.96-.15-1.24-.46-.28-.31-.42-.84-.42-1.58l.02-5.83c-1.87-.29-3.29-.43-4.29-.43-1.16 0-2.18.24-3.07.71-.88.47-1.57 1.13-2.05 1.97-.49.84-.73 1.78-.73 2.81s.23 2.02.69 2.84c.46.82 1.09 1.45 1.89 1.89.8.44 1.73.67 2.69.67 1.42 0 3.21-.32 3.72-.42.53.27 1.14.42 1.87.42h29.35Zm21.94-6.37c.32-.32.73-.47 1.24-.47.43 0 .8.1 1.12.3.31.2.56.46.73.76.17.31.26.61.26.92 0 .67-.17 1.22-.5 1.65-.33.42-.79.63-1.38.63h-.09c-1.25-.39-1.87-1.18-1.87-2.37 0-.63.16-1.1.48-1.42Zm-58.37 3.05c-.45-.49-.68-1.17-.68-2.03 0-1.96.87-2.95 2.63-2.95.4 0 .85.05 1.36.15v4c0 .56.07 1.06.2 1.52-.42.02-1.05.05-1.55.05-.83 0-1.5-.25-1.95-.74Z" fill="#373D48"></path><path class="new-nca-logo_svg__cls-2" d="M176.88 45.02h-2.47c-.11-.16-.17-.37-.17-.62s.07-.46.2-.6c.14-.14.31-.22.53-.22.16 0 .36.04.61.13l.54-1.64c-.47-.14-.92-.22-1.34-.22-.75 0-1.34.21-1.77.62s-.66.98-.66 1.68c0 .29.07.57.21.86h-1.05l-.39 1.83h5.77v-1.83ZM183.92 60.88h3.1v2.71h-3.1zM179.62 60.88h3.1v2.71h-3.1zM215.3 42.5h3.01v16.49h-3.01zM24.28 86.71h3.1v2.71h-3.1zM28.58 86.71h3.1v2.71h-3.1zM44.4 69.6h3.1v2.71h-3.1zM44.47 82.24h-2.58c-.55 0-.96-.15-1.24-.46-.28-.31-.42-.84-.42-1.58v-8.63H35.6c-1.82 0-3.16.48-4 1.43-.85.95-1.27 2.15-1.27 3.58v5.66H26.5c-2.11 0-3.16-.96-3.16-2.88v-5.21h-3.01v5.68c0 1.44.42 2.63 1.27 3.57.85.95 2.18 1.42 4 1.42h7.75v-7.77c0-1.94 1.05-2.91 3.16-2.91h.71v6.52c0 1.26.32 2.27.97 3.02.64.75 1.58 1.13 2.8 1.13h6.48V74.13h-2.99v8.09ZM50.69 68.33h3.01v16.49h-3.01zM91.56 86.71h3.1v2.71h-3.1zM102.11 86.71h3.1v2.71h-3.1zM97.81 86.71h3.1v2.71h-3.1z" fill="#373D48"></path><path class="new-nca-logo_svg__cls-2" d="M130.46 82.24h-2.15c-.85 0-1.47-.06-1.86-.18-.4-.12-.76-.36-1.09-.72.09-.46.13-.83.13-1.1v-7h-3.01v6.52c0 .83-.18 1.45-.56 1.86-.38.41-.85.61-1.42.61s-1.12-.17-1.6-.51c-.48-.34-.72-.83-.72-1.47v-6.11h-3.01v5.62c0 .75-.2 1.35-.61 1.8-.41.45-.9.68-1.47.68h-1.33v-8.09h-3.01v8.09h-2.15c-.83 0-1.45-.06-1.85-.18-.4-.12-.76-.35-1.08-.7.07-.39.11-.76.11-1.12v-6.31h-3.02v5.83c0 .75-.2 1.35-.61 1.8-.41.45-.9.68-1.48.68h-1.94c-.96 0-1.66-.27-2.09-.8.09-.39.13-.79.13-1.21v-6.09h-3.02v5.62c0 .75-.2 1.35-.61 1.8-.41.45-.9.68-1.47.68H62.74c-.99 0-1.72-.31-2.17-.93v-7.17h-3.01v10.12c0 .7-.1 1.25-.3 1.65-.2.39-.5.68-.91.85-.4.17-.96.31-1.66.41v2.81l1.21-.12c1.38-.16 2.5-.68 3.37-1.56.87-.88 1.3-2.26 1.3-4.12v-.02c.75.44 1.47.67 2.17.67h27.83c1.29 0 2.32-.46 3.1-1.38.44.46.95.8 1.5 1.03.56.23 1.08.34 1.55.34h2.84c.69 0 1.32-.14 1.88-.43.57-.29 1.04-.69 1.41-1.21.49.6 1 1.02 1.55 1.26s1.27.36 2.17.38h7.4c1.29 0 2.34-.48 3.14-1.44.4.47.89.83 1.47 1.08.58.24 1.36.37 2.33.37.75 0 1.43-.15 2.06-.45.62-.3 1.14-.72 1.54-1.25.5.63 1.03 1.07 1.58 1.31s1.29.37 2.21.39h5.14V68.34h-2.99v13.9ZM137.11 68.33h3.01v16.49h-3.01zM151.75 71.45h3.1v2.71h-3.1zM193.21 74.64c-.88-.47-1.9-.71-3.07-.71-.99 0-2.42.14-4.28.43v7.88h-26.52v-8.09h-3.01V86.1h-2.52c-2.11 0-3.16-.97-3.16-2.9v-3.72h-3.01v4.2c0 1.43.42 2.62 1.27 3.57.85.95 2.18 1.42 4 1.42h6.43v-3.83h35.36c.86-2.25 1.29-4.05 1.29-5.4 0-1.03-.24-1.97-.73-2.81-.49-.84-1.17-1.5-2.06-1.97Zm-.76 7.6h-3.57v-5.57c.47-.1.93-.15 1.38-.15 1.75 0 2.63.98 2.63 2.95 0 .86-.14 1.79-.43 2.78ZM201.94 71.67h4.3v-1.4h-1.83a.496.496 0 0 1-.28-.47c0-.11.05-.21.14-.29.09-.08.21-.12.36-.12.24 0 .57.06.99.17l.32-1.38c-.6-.2-1.09-.3-1.46-.3-.5 0-.89.15-1.17.45-.28.3-.42.68-.42 1.14 0 .25.07.51.22.8h-.8l-.36 1.4Z" fill="#373D48"></path><path class="new-nca-logo_svg__cls-2" d="M215.33 82.24h-2.58c-.55 0-.96-.15-1.24-.46-.28-.31-.42-.84-.42-1.58V67.91h-3.02v12.76c0 .19.01.45.04.8-.68.4-1.56.65-2.65.75h-.08v-8.61h-3.02v8.63h-3.81v2.58h6.37c1.45 0 2.77-.44 3.96-1.31.68.88 1.66 1.31 2.95 1.31h6.47V68.33h-2.99v13.9ZM25.08 104.43c.66.93 1.19 1.76 1.6 2.49h.04c-.05-1.19-.08-2.05-.08-2.6v-4.14h1.67v9.14h-1.76l-2.98-4.21c-.52-.73-1.07-1.57-1.63-2.53h-.04c.05 1.12.08 1.99.08 2.6v4.14h-1.67v-9.14h1.76l3.01 4.25ZM34.18 108.62h-.03c-.09.1-.2.19-.33.29-.13.1-.27.19-.44.28-.16.09-.35.16-.55.21a2.69 2.69 0 0 1-1.53-.07c-.27-.1-.51-.24-.7-.42-.2-.18-.35-.41-.46-.67-.11-.26-.17-.55-.17-.88 0-.36.06-.67.19-.96.13-.28.31-.52.54-.72.23-.2.51-.34.83-.45s.68-.15 1.07-.15c.29 0 .55.02.79.05.24.04.45.08.64.13v-.27c0-.15-.03-.3-.08-.45-.05-.14-.14-.27-.25-.38-.12-.11-.27-.2-.45-.27s-.41-.1-.68-.1c-.33 0-.66.04-.98.11-.33.07-.68.18-1.07.33v-1.26c.33-.15.69-.26 1.06-.33.37-.08.76-.12 1.17-.12.48 0 .9.06 1.27.18.36.12.66.28.91.49.24.21.43.45.55.73.12.28.18.59.18.92v2.49c0 .44 0 .81.01 1.13 0 .31.02.59.03.84h-1.46l-.07-.7Zm-.13-2.12a5.06 5.06 0 0 0-.53-.1c-.2-.03-.4-.04-.61-.04-.4 0-.71.08-.94.24s-.34.4-.34.72c0 .15.03.28.08.39.05.11.12.2.21.28.09.07.19.13.31.16.12.04.24.05.38.05.16 0 .32-.02.46-.06.15-.04.28-.1.4-.16.12-.07.23-.14.33-.22.1-.08.18-.16.25-.24v-1.01ZM41.53 109.32c-.18.05-.4.1-.65.13s-.49.05-.71.05c-.56 0-1.01-.09-1.36-.27-.35-.18-.6-.44-.75-.78-.1-.24-.16-.57-.16-.98v-3.43h-1.24v-1.33h1.24v-1.85h1.62v1.85h1.91v1.33h-1.91v3.22c0 .25.04.44.12.57.14.21.41.31.81.31.19 0 .37-.01.56-.04s.36-.07.52-.11v1.34ZM42.79 99.43h1.7v1.76h-1.7v-1.76Zm.04 3.27h1.62v6.62h-1.62v-6.62ZM52.58 106.02c0 .52-.08.99-.23 1.42-.15.43-.38.79-.67 1.1s-.64.54-1.05.71c-.41.17-.87.25-1.37.25s-.98-.08-1.4-.25c-.41-.17-.76-.4-1.05-.71-.29-.3-.51-.67-.66-1.1s-.23-.9-.23-1.42.08-.99.23-1.42c.15-.43.38-.79.67-1.1.29-.3.64-.54 1.05-.71.41-.17.87-.25 1.37-.25s.98.08 1.4.25c.41.17.76.4 1.05.71s.51.67.66 1.1c.15.43.23.9.23 1.42Zm-1.67 0c0-.35-.04-.66-.12-.93-.08-.27-.2-.49-.34-.68-.15-.18-.32-.32-.53-.41s-.43-.14-.67-.14-.46.05-.66.14c-.2.09-.38.23-.52.41-.15.18-.26.41-.34.68-.08.27-.12.58-.12.93s.04.66.12.93c.08.27.2.49.34.67.15.18.32.32.53.41.2.09.42.14.67.14s.46-.05.66-.14.37-.23.52-.41c.15-.18.26-.4.34-.67.08-.27.12-.58.12-.93ZM55.51 103.63h.03c.1-.14.22-.27.36-.4a2.621 2.621 0 0 1 1.12-.59c.23-.06.47-.09.72-.09.24 0 .47.03.7.08.23.05.43.14.62.26s.35.27.5.45.26.4.34.66c.05.14.08.29.09.46.02.17.02.36.02.58v4.3h-1.62v-4.04c0-.18 0-.33-.02-.46a.999.999 0 0 0-.08-.33.843.843 0 0 0-.37-.45c-.17-.09-.37-.14-.6-.14-.31 0-.62.07-.9.22-.29.15-.55.36-.77.65v4.56h-1.62v-6.62h1.34l.15.92ZM65.67 108.62h-.03c-.09.1-.2.19-.33.29-.13.1-.27.19-.44.28-.16.09-.35.16-.55.21a2.69 2.69 0 0 1-1.53-.07c-.27-.1-.51-.24-.7-.42-.2-.18-.35-.41-.46-.67-.11-.26-.17-.55-.17-.88 0-.36.06-.67.19-.96s.31-.52.54-.72c.23-.2.51-.34.83-.45s.68-.15 1.07-.15c.29 0 .55.02.79.05.24.04.45.08.64.13v-.27c0-.15-.03-.3-.08-.45-.05-.14-.14-.27-.25-.38-.12-.11-.27-.2-.45-.27s-.41-.1-.68-.1c-.33 0-.66.04-.98.11-.33.07-.68.18-1.07.33v-1.26c.33-.15.69-.26 1.06-.33.37-.08.76-.12 1.17-.12.48 0 .9.06 1.27.18.36.12.66.28.91.49.24.21.43.45.55.73.12.28.18.59.18.92v2.49c0 .44 0 .81.01 1.13 0 .31.02.59.03.84h-1.46l-.07-.7Zm-.13-2.12a5.06 5.06 0 0 0-.53-.1c-.2-.03-.4-.04-.61-.04-.4 0-.71.08-.94.24s-.34.4-.34.72c0 .15.03.28.08.39.05.11.12.2.21.28.09.07.19.13.31.16.12.04.24.05.38.05.16 0 .32-.02.46-.06.15-.04.28-.1.4-.16.12-.07.23-.14.33-.22.1-.08.18-.16.25-.24v-1.01ZM69.04 109.32v-9.89h1.62v9.89h-1.62ZM80.04 101.43c-.46 0-.88.08-1.26.23s-.71.37-.99.66c-.28.29-.49.64-.65 1.06-.15.42-.23.9-.23 1.44s.07 1.01.21 1.42c.14.41.34.75.61 1.02.26.27.59.48.97.62s.81.21 1.29.21c.35 0 .7-.03 1.06-.08.36-.05.7-.13 1.01-.24v1.44c-.32.09-.66.16-1.03.22-.37.05-.75.08-1.15.08-.77 0-1.45-.11-2.04-.33-.59-.22-1.08-.53-1.47-.94-.39-.4-.69-.89-.89-1.45-.2-.56-.3-1.18-.3-1.86s.11-1.34.32-1.94c.21-.6.52-1.11.92-1.55.4-.44.9-.78 1.5-1.03s1.28-.38 2.03-.38c.39 0 .75.03 1.1.08.35.05.66.13.94.22v1.42c-.36-.11-.7-.19-1.02-.24-.31-.05-.62-.07-.92-.07ZM82.23 102.71h1.73l.99 2.4c.37.91.64 1.58.79 2.02h.03c.11-.34.36-.97.72-1.9l1.02-2.52h1.76l-4.26 9.79h-1.6l1.52-3.54-2.7-6.25ZM96.59 105.9c0 .6-.09 1.12-.26 1.58-.17.46-.4.84-.68 1.13-.28.3-.6.52-.95.66s-.7.22-1.06.22c-.25 0-.48-.03-.68-.09s-.38-.14-.53-.23c-.15-.09-.28-.19-.38-.29-.1-.1-.18-.19-.24-.27h-.03l-.16.7h-1.34c0-.2.02-.44.02-.73s.01-.56.01-.82v-8.34h1.62v3.29c0 .17 0 .3-.01.39h.01c.1-.07.22-.14.34-.21.12-.07.26-.13.4-.18.15-.05.3-.1.47-.13s.35-.05.53-.05c.37 0 .73.07 1.08.2.35.13.66.34.93.61s.49.63.65 1.06.24.93.24 1.49Zm-1.67.08c0-.41-.05-.77-.15-1.07-.1-.3-.23-.53-.39-.68-.16-.16-.33-.26-.51-.32-.18-.05-.35-.08-.52-.08-.24 0-.48.05-.72.14s-.47.22-.67.38v3.17c.06.07.14.15.24.23.09.08.2.15.31.22a1.607 1.607 0 0 0 .82.22c.26 0 .5-.05.69-.16.2-.11.36-.26.5-.45.13-.2.24-.43.3-.7s.1-.57.1-.91ZM101.44 108.19c.31 0 .64-.03.98-.1.34-.06.69-.15 1.04-.27v1.29c-.21.09-.53.18-.96.26s-.88.12-1.35.12-.91-.06-1.34-.18-.79-.32-1.1-.58c-.31-.27-.56-.62-.75-1.04s-.28-.95-.28-1.56.09-1.13.26-1.58c.17-.45.41-.82.7-1.12.29-.3.62-.52 1-.67.38-.15.76-.22 1.16-.22s.8.06 1.16.19.66.33.92.6c.26.27.46.62.6 1.06.14.43.22.94.22 1.53 0 .23-.01.42-.02.58h-4.34c.02.3.09.57.2.78s.26.39.45.53c.18.13.4.23.65.29s.51.09.8.09Zm-.65-4.38c-.2 0-.39.04-.55.11-.16.08-.3.18-.41.31-.12.13-.21.28-.28.45s-.11.36-.14.55h2.6c0-.2-.03-.38-.08-.55-.05-.17-.13-.32-.23-.45s-.23-.23-.38-.31c-.15-.08-.33-.11-.54-.11ZM109.13 103.99h-.14c-.5 0-.93.07-1.31.22s-.67.37-.87.68v4.43h-1.62v-6.62h1.34l.15.92h.03c.19-.34.45-.6.79-.8.33-.19.74-.29 1.21-.29.16 0 .3 0 .42.03v1.42ZM113.02 107.41c0-.14-.04-.26-.12-.35-.08-.09-.19-.17-.32-.23s-.28-.11-.45-.16-.35-.09-.54-.14c-.24-.06-.46-.14-.68-.22-.22-.08-.41-.19-.58-.33-.17-.14-.3-.31-.4-.52-.1-.21-.15-.46-.15-.76 0-.37.07-.69.2-.96s.31-.5.54-.67.49-.31.79-.4c.3-.09.61-.13.95-.13.41 0 .79.03 1.14.1.36.07.68.15.96.26v1.32c-.15-.05-.31-.1-.47-.14-.17-.04-.33-.08-.51-.11-.17-.03-.34-.06-.51-.08-.17-.02-.33-.03-.48-.03-.19 0-.35.02-.48.05-.13.04-.24.09-.32.15s-.14.13-.18.21c-.04.08-.05.16-.05.25 0 .15.04.27.12.37.08.1.19.17.33.23s.29.11.44.15c.15.04.3.08.45.11.23.05.46.12.68.2.23.08.43.19.61.32s.33.32.45.54c.12.22.17.5.17.84 0 .37-.07.7-.21.98-.14.28-.34.51-.59.69s-.56.32-.91.41-.74.13-1.16.13-.8-.03-1.13-.1c-.33-.07-.61-.15-.83-.25v-1.3c.36.13.68.22.98.27.3.05.58.07.84.07.2 0 .39-.01.56-.04.17-.03.32-.08.45-.14s.22-.14.3-.24c.07-.1.11-.21.11-.35ZM119.43 108.19c.31 0 .64-.03.98-.1.34-.06.69-.15 1.04-.27v1.29c-.21.09-.53.18-.96.26s-.88.12-1.35.12-.91-.06-1.34-.18-.79-.32-1.1-.58c-.31-.27-.56-.62-.75-1.04s-.28-.95-.28-1.56.09-1.13.26-1.58c.17-.45.41-.82.7-1.12.29-.3.62-.52 1-.67.38-.15.76-.22 1.16-.22s.8.06 1.16.19.66.33.92.6c.26.27.46.62.6 1.06.14.43.22.94.22 1.53 0 .23-.01.42-.02.58h-4.34c.02.3.09.57.2.78s.26.39.45.53c.18.13.4.23.65.29s.51.09.8.09Zm-.65-4.38c-.2 0-.39.04-.55.11-.16.08-.3.18-.41.31-.12.13-.21.28-.28.45s-.11.36-.14.55h2.6c0-.2-.03-.38-.08-.55-.05-.17-.13-.32-.23-.45s-.23-.23-.38-.31c-.15-.08-.33-.11-.54-.11ZM127.96 109.18c-.2.09-.46.16-.75.22-.3.06-.61.09-.94.09-.48 0-.92-.07-1.34-.21-.41-.14-.78-.34-1.09-.62s-.55-.63-.73-1.06-.27-.92-.27-1.49c0-.64.1-1.18.31-1.64.2-.46.47-.83.8-1.11.33-.28.69-.49 1.1-.63.41-.13.81-.2 1.21-.2.3 0 .58.03.85.08s.52.12.74.21v1.32a3.402 3.402 0 0 0-1.37-.29c-.26 0-.51.04-.74.12s-.45.21-.63.38-.33.4-.43.69c-.11.28-.16.63-.16 1.03 0 .29.04.57.12.82.08.26.2.48.36.66.16.18.36.33.6.44.24.11.53.17.86.17.3 0 .56-.03.81-.09s.47-.13.68-.22v1.32ZM132.28 109.5c-.66 0-1.22-.11-1.65-.34-.44-.23-.77-.53-.99-.91-.12-.2-.21-.43-.26-.68s-.09-.52-.09-.82v-4.04h1.62v3.87c0 .22.02.42.05.58.03.16.08.3.14.42.11.2.26.35.46.45.2.1.44.15.72.15.29 0 .54-.05.75-.16s.36-.28.47-.5c.1-.21.16-.51.16-.89v-3.91h1.62v4.04c0 .54-.09.99-.28 1.36-.1.21-.24.4-.41.57-.17.17-.36.32-.59.44-.23.12-.48.21-.77.28-.28.07-.6.1-.95.1ZM140.91 103.99h-.14c-.5 0-.93.07-1.31.22s-.67.37-.87.68v4.43h-1.62v-6.62h1.34l.15.92h.03c.19-.34.45-.6.79-.8.33-.19.74-.29 1.21-.29.16 0 .3 0 .42.03v1.42ZM141.87 99.43h1.7v1.76h-1.7v-1.76Zm.04 3.27h1.62v6.62h-1.62v-6.62ZM149.39 109.32c-.18.05-.4.1-.65.13s-.49.05-.71.05c-.56 0-1.01-.09-1.36-.27s-.6-.44-.75-.78c-.1-.24-.16-.57-.16-.98v-3.43h-1.24v-1.33h1.24v-1.85h1.62v1.85h1.91v1.33h-1.91v3.22c0 .25.04.44.12.57.14.21.41.31.81.31.19 0 .37-.01.56-.04s.36-.07.52-.11v1.34ZM149.83 102.71h1.73l.99 2.4c.37.91.64 1.58.79 2.02h.03c.11-.34.36-.97.72-1.9l1.02-2.52h1.76l-4.26 9.79h-1.6l1.52-3.54-2.7-6.25ZM166.16 107h-3.44l-.9 2.33h-1.78l3.63-9.14h1.53l3.63 9.14h-1.77l-.9-2.33Zm-1.73-4.61c-.32.96-.6 1.75-.86 2.4l-.31.81h2.36l-.31-.81c-.25-.65-.53-1.45-.85-2.4h-.03ZM172.84 109.5c-.66 0-1.22-.11-1.65-.34-.44-.23-.77-.53-.99-.91-.12-.2-.21-.43-.26-.68-.06-.25-.09-.52-.09-.82v-4.04h1.62v3.87c0 .22.02.42.05.58.03.16.08.3.14.42.11.2.26.35.46.45.2.1.44.15.72.15.29 0 .54-.05.75-.16.21-.11.36-.28.47-.5.1-.21.16-.51.16-.89v-3.91h1.62v4.04c0 .54-.09.99-.28 1.36-.1.21-.24.4-.41.57-.17.17-.36.32-.59.44s-.48.21-.76.28c-.28.07-.6.1-.95.1ZM181.58 109.32c-.18.05-.4.1-.65.13s-.49.05-.71.05c-.56 0-1.01-.09-1.36-.27-.35-.18-.6-.44-.75-.78-.11-.24-.16-.57-.16-.98v-3.43h-1.24v-1.33h1.24v-1.85h1.62v1.85h1.91v1.33h-1.91v3.22c0 .25.04.44.12.57.14.21.41.31.81.31.19 0 .37-.01.56-.04s.36-.07.52-.11v1.34ZM184.53 102.13c0 .34 0 .62-.02.84-.01.22-.03.42-.06.6h.03c.1-.13.21-.25.35-.38s.29-.24.46-.33c.17-.09.36-.17.57-.23.21-.06.44-.09.7-.09.22 0 .43.02.64.06.21.04.4.11.58.2s.34.21.49.36a2.044 2.044 0 0 1 .56 1.11c.04.22.06.48.06.8v4.25h-1.62v-4.04c0-.21 0-.37-.03-.5-.02-.13-.05-.24-.1-.34-.1-.2-.23-.34-.41-.42-.18-.08-.38-.12-.61-.12-.31 0-.6.08-.87.23-.27.15-.51.36-.73.64v4.56h-1.62v-9.89h1.62v2.7ZM196.98 106.02c0 .52-.08.99-.23 1.42s-.38.79-.67 1.1-.64.54-1.05.71c-.41.17-.87.25-1.37.25s-.98-.08-1.4-.25c-.41-.17-.76-.4-1.05-.71s-.51-.67-.66-1.1-.23-.9-.23-1.42.08-.99.23-1.42c.15-.43.38-.79.67-1.1.29-.3.64-.54 1.05-.71.41-.17.87-.25 1.37-.25s.98.08 1.4.25c.41.17.76.4 1.05.71.29.3.51.67.66 1.1.15.43.23.9.23 1.42Zm-1.67 0c0-.35-.04-.66-.12-.93-.08-.27-.2-.49-.34-.68-.15-.18-.32-.32-.53-.41a1.64 1.64 0 0 0-1.33 0c-.2.09-.38.23-.52.41-.15.18-.26.41-.34.68-.08.27-.12.58-.12.93s.04.66.12.93c.08.27.2.49.34.67.15.18.32.32.53.41.2.09.42.14.67.14s.46-.05.66-.14.37-.23.52-.41c.15-.18.26-.4.34-.67.08-.27.12-.58.12-.93ZM202.35 103.99h-.14c-.5 0-.93.07-1.31.22s-.67.37-.87.68v4.43h-1.62v-6.62h1.34l.15.92h.03c.19-.34.45-.6.79-.8.33-.19.74-.29 1.21-.29.16 0 .3 0 .42.03v1.42ZM203.3 99.43h1.7v1.76h-1.7v-1.76Zm.04 3.27h1.62v6.62h-1.62v-6.62ZM210.82 109.32c-.18.05-.4.1-.65.13s-.49.05-.71.05c-.56 0-1.01-.09-1.36-.27s-.6-.44-.75-.78c-.1-.24-.16-.57-.16-.98v-3.43h-1.24v-1.33h1.24v-1.85h1.62v1.85h1.91v1.33h-1.91v3.22c0 .25.04.44.12.57.14.21.41.31.81.31.19 0 .37-.01.56-.04s.36-.07.52-.11v1.34ZM211.27 102.71H213l.99 2.4c.37.91.64 1.58.79 2.02h.03c.11-.34.36-.97.72-1.9l1.02-2.52h1.76l-4.26 9.79h-1.6l1.52-3.54-2.7-6.25Z" fill="#373D48"></path><path d="M262.61 71.01c.41.48.63 1.09.63 1.72v41.31c0 .73-.59 1.33-1.32 1.33h-2.61c-.73 0-1.33-.6-1.33-1.33V73.71L246.97 60.9c-.41-.47-.63-1.08-.63-1.71v-9.42c0-.73.59-1.33 1.32-1.33h2.61c.73 0 1.32.6 1.32 1.33v8.44l11.02 12.8Zm-7.23 8.48c0 2.48-1.4 4.69-3.64 5.77l-.15.07v19.2c0 .73-.59 1.32-1.32 1.32h-2.61c-.73 0-1.32-.59-1.32-1.32v-19.2l-.15-.07a6.351 6.351 0 0 1-3.64-5.77c0-3.53 2.88-6.41 6.41-6.41s6.41 2.88 6.41 6.41Zm-3.86 0c0-1.41-1.15-2.56-2.56-2.56s-2.56 1.15-2.56 2.56 1.15 2.56 2.56 2.56 2.56-1.15 2.56-2.56Zm10.4-68h-2.61c-.73 0-1.33.59-1.33 1.32v20.17l-6.4 3.1V16.52c0-.73-.59-1.33-1.32-1.33h-2.61c-.73 0-1.32.6-1.32 1.33v23.67c0 .72.24 1.39.69 1.87a2.626 2.626 0 0 0 3.07.58L261.74 37c.9-.43 1.48-1.36 1.48-2.36V12.81c0-.73-.59-1.32-1.32-1.32Zm32.35 32.19h2.6c.74 0 1.33-.6 1.33-1.33v-31.4c0-.74-.59-1.33-1.33-1.33h-2.6c-.73 0-1.33.59-1.33 1.33v31.4c0 .73.6 1.33 1.33 1.33Zm-23.37-8.01 11.65 7.09c.83.5 1.92.5 2.74 0 .77-.47 1.25-1.37 1.25-2.36V10.03c0-.73-.59-1.32-1.33-1.32h-2.6c-.73 0-1.33.59-1.33 1.32v25.82l-6.4-3.89V10.95c0-.74-.59-1.33-1.32-1.33h-2.61c-.73 0-1.33.59-1.33 1.33v22.48c0 .91.49 1.78 1.27 2.25Zm-32.29-14.22H236c-.73 0-1.32.6-1.32 1.33v60.46c0 .73.59 1.33 1.32 1.33h2.61c.73 0 1.32-.6 1.32-1.33V22.79c0-.73-.59-1.33-1.32-1.33Zm93.22 0h-2.6c-.74 0-1.33.6-1.33 1.33v60.46c0 .73.59 1.33 1.33 1.33h2.6c.73 0 1.33-.6 1.33-1.33V22.79c0-.73-.6-1.33-1.33-1.33Zm-11.65-6.27h-2.6c-.74 0-1.33.6-1.33 1.33v35.15c0 .73.59 1.33 1.33 1.33h2.6c.73 0 1.33-.6 1.33-1.33V16.52c0-.73-.6-1.33-1.33-1.33Zm-1.3 68.24c-.45 0-.91.12-1.33.37l-11.65 6.83a2.62 2.62 0 0 0-1.3 2.26v21.15c0 .73.6 1.33 1.33 1.33h2.6c.74 0 1.33-.6 1.33-1.33V94.39l6.4-3.75v13.88c0 .73.59 1.32 1.33 1.32h2.6c.73 0 1.33-.59 1.33-1.32V86.13c0-.79-.31-1.52-.83-2.01-.51-.47-1.15-.71-1.8-.71ZM295.59 96.1h-.14l-11.65.57c-1.41.07-2.5 1.23-2.5 2.62v25.98c0 .73.6 1.32 1.33 1.32h2.6c.74 0 1.33-.59 1.33-1.32v-23.48l6.4-.32v19.21c0 .73.6 1.33 1.33 1.33h2.6c.74 0 1.33-.6 1.33-1.33V98.72c0-.25-.03-.47-.08-.67-.32-1.17-1.35-1.97-2.54-1.97Zm-16.91 19.51c0 3.53-2.87 6.41-6.41 6.41s-6.41-2.87-6.41-6.41c0-2.48 1.4-4.69 3.64-5.77l.15-.08V93.7c0-.73.6-1.32 1.33-1.32h2.61c.73 0 1.32.59 1.32 1.32v16.06l.15.08a6.351 6.351 0 0 1 3.64 5.77Zm-3.85 0c0-1.41-1.15-2.56-2.56-2.56s-2.56 1.15-2.56 2.56 1.15 2.56 2.56 2.56 2.56-1.15 2.56-2.56Zm45.74-52.45c.6.51.94 1.23.94 2.02v6.55c0 .73-.6 1.32-1.33 1.32h-2.6c-.74 0-1.33-.59-1.33-1.32v-5.32l-10.71-8.94c-.6-.5-.94-1.24-.94-2.02v-31.7l-.15-.08a6.443 6.443 0 0 1-3.64-5.77c0-3.53 2.87-6.41 6.41-6.41s6.41 2.87 6.41 6.41c0 2.44-1.42 4.71-3.64 5.77l-.15.08v30.49l10.71 8.94Zm-10.79-45.28c0-1.41-1.14-2.56-2.55-2.56s-2.56 1.15-2.56 2.56 1.14 2.56 2.56 2.56 2.55-1.14 2.55-2.56Zm-9.07 57.19c-6.23-1.77-9.39.46-13.39 3.29-.48.34-.98.69-1.49 1.05-.85-6.59-.7-14.52-.54-17.14 1.64 1 3.58 2.86 4.9 7.73l.18.67c.03.1.14.18.23.17.11 0 .2-.09.21-.19l.13-.69c.87-4.82-1.65-8.25-2.68-9.42.46.07 1.17.25 2.02.63 1.35.63 3.4 1.99 5.4 4.91l.43.63c.07.09.18.13.28.09s.16-.15.14-.27l-.15-.75c-1.29-6.3-5.87-8.43-7.51-9 .87-.3 2.98-.63 7.07.71l.53.17c.09.03.21 0 .27-.09.05-.09.05-.2-.02-.27l-.36-.42c-3.1-3.64-7.59-3.31-9.16-3.06.39-.55 1.19-1.42 2.52-2.35l.54-.37c.09-.06.12-.17.09-.27a.25.25 0 0 0-.25-.15l-.65.09c-1.19.17-2.17.5-2.94.87s-1.33.77-1.69 1.09c-.07-.66-.21-1.54-.52-2.25l-.14-.32c-.04-.09-.12-.15-.21-.15s-.17.06-.21.14l-.14.33c-.32.71-.46 1.59-.52 2.25-.71-.63-2.25-1.62-4.63-1.96l-.65-.09c-.1-.02-.21.04-.25.15-.04.1 0 .21.09.27l.54.37c1.33.93 2.13 1.79 2.52 2.35-1.58-.25-6.06-.57-9.16 3.06l-.36.42c-.07.08-.08.19-.02.27.06.09.16.13.27.09l.52-.17c4.07-1.35 6.2-1.01 7.07-.71-1.65.57-6.21 2.68-7.5 8.99l-.15.76c-.03.1.03.21.14.26.09.04.21 0 .27-.09l.44-.63c2.01-2.92 4.04-4.29 5.39-4.91.85-.39 1.55-.56 2.02-.63-1.05 1.18-3.54 4.6-2.68 9.42l.12.69c.02.1.11.18.22.19.13 0 .2-.07.23-.17l.18-.67c1.31-4.87 3.26-6.73 4.9-7.73.16 2.62.31 10.54-.54 17.14-.51-.35-1.01-.7-1.49-1.05-4-2.83-7.16-5.06-13.4-3.29a.23.23 0 0 0-.16.24c0 .11.1.2.21.21 6.16.51 9.07 2.81 12.15 5.23.69.54 1.38 1.09 2.13 1.62-2.12 1.39-4.38 2.7-6.71 3.12-.11.03-.21.12-.22.24 0 .09.06.24.15.28 3.29 1.76 6.14.19 9.24-1.92 2.16 1.47 4.2 2.68 6.35 2.68.93 0 1.9-.23 2.89-.76.09-.04.15-.19.15-.28a.313.313 0 0 0-.23-.24c-2.32-.42-4.59-1.73-6.7-3.12.74-.53 1.44-1.08 2.12-1.61 3.09-2.43 5.99-4.73 12.16-5.24.11-.02.2-.1.21-.21 0-.11-.06-.21-.17-.24Z" style="" fill="url(&quot;#new-nca-logo_svg__linear-gradient&quot;)"></path>   <script type="text/javascript">
    alert("XSS by SL hackerone");
  </script> </svg>